PathFileType	4	(X/Y/Z)	18_1_31_p1_0-279.trc
DataRate	CameraRate	NumFrames	NumMarkers	Units	OrigDataRate	OrigDataStartFrame	OrigNumFrames
59.0	59.0	5	27	m	59.0	35	280
Frame#	Time	RHip			RKnee			RAnkle			RBigToe			RSmallToe			RHeel			LHip			LKnee			LAnkle			LBigToe			LSmallToe			LHeel			Neck			Head			Nose			RShoulder			RElbow			RWrist			RThumb			RIndex			RPinky			LShoulder			LElbow			LWrist			LThumb			LIndex			LPinky			
		X1	Y1	Z1	X2	Y2	Z2	X3	Y3	Z3	X4	Y4	Z4	X5	Y5	Z5	X6	Y6	Z6	X7	Y7	Z7	X8	Y8	Z8	X9	Y9	Z9	X10	Y10	Z10	X11	Y11	Z11	X12	Y12	Z12	X13	Y13	Z13	X14	Y14	Z14	X15	Y15	Z15	X16	Y16	Z16	X17	Y17	Z17	X18	Y18	Z18	X19	Y19	Z19	X20	Y20	Z20	X21	Y21	Z21	X22	Y22	Z22	X23	Y23	Z23	X24	Y24	Z24	X25	Y25	Z25	X26	Y26	Z26	X27	Y27	Z27	
35	0.5932203389830508	0.2751837402183981	0.394711548735084	1.1723827646545053	0.25933509711662733	0.5002133725726501	1.5895084254458922	0.2299294775238714	0.6353824349892387	2.0280812343522703	0.21283112339195834	0.38527333434359684	2.03176746782377	0.2690782482331449	0.4501588737517976	2.05630592724925	0.21301947813449523	0.6774153587468474	2.0709472229141395	0.0866581327970595	0.35038215144267804	1.1640642008373057	0.09616650243150097	0.4342993961164542	1.564114772452914	0.06128152344065717	0.5878455431793025	2.0238903288808765	0.06454204995874988	0.405302854897739	2.0535498344221312	0.018805386791903606	0.4358347500452879	2.042217406458048	0.07868527031051897	0.633937721398373	2.065742040118419	0.20759701395367175	0.2743965175773711	0.5854104344341292	0.21923431242673128	0.21088867478014575	0.36686372850195076	0.21840795792981682	0.1636391078360841	0.4837511430282612	0.3508657750813941	0.3312958398031482	0.7000442520689987	0.39758288421528687	0.30640973578055625	0.9361762259626616	0.3230569252229284	0.0836750786978227	1.0093319007367634	0.23727432463365328	-0.04638537820308616	1.0232616258147398	0.24099898709691486	-0.06003035231890691	1.043288191631121	0.2577719116162388	0.019403270207161122	1.1028103576163248	0.05340450717222378	0.3223407471974728	0.6777387449385808	-0.045438822746901454	0.17413391687318025	0.8257390654776239	0.08997195655078309	0.00450227696938976	0.8498977909102124	0.17338612021839445	0.01469630203302431	0.9136231220757707	0.185789503590044	-0.041852602700617046	0.9087695334178616	0.12762391108680454	-0.02188555149071178	0.9392693128426806
36	0.6101694915254238	0.28848238296962536	0.3879519984447719	1.1658400985979152	0.25937126760833973	0.5001473614355911	1.5890969824376324	0.22991224406166974	0.6355507101385778	2.028231395241221	0.21503222508675982	0.3988874670952267	2.0428473418858677	0.26424799608059774	0.4477281806084159	2.055453400344436	0.21309460598519994	0.6781802415234642	2.0709618014263427	0.0959967518843016	0.3386598504462092	1.1525859044260731	0.09692190804008709	0.4189477642381035	1.558859499707389	0.06037074309216756	0.5847025841110306	2.017826141322128	0.06950213432865307	0.39170054518159014	2.0459419446933467	0.024201569572981866	0.42152605556573436	2.034174876120788	0.07861670720238985	0.63406165506739	2.06572585715555	0.20802920291478338	0.27317648771758196	0.5890376043328094	0.2193537382854522	0.21069352922865558	0.3667492555093125	0.21858790291016705	0.16341649069351988	0.48373933441181116	0.3509238492213682	0.3310160466507274	0.6999750034334702	0.39821479580453367	0.30573245782785563	0.9402120546563054	0.32455038067407727	0.11719458394339499	1.0289062114714078	0.24636695734041156	0.014529696100190684	1.0447602218204368	0.23813982883355328	-0.022528505833690073	1.0630651912901528	0.25517388989656337	0.0330613874275644	1.116960773846953	0.05880897926625295	0.3079919053416346	0.6736741976608364	-0.05367943362082866	0.18573439658778534	0.8111674351169892	0.08519735964290197	0.031277714186086325	0.8215442743932302	0.16479380178071962	0.006942181596154244	0.8795917430368116	0.16935578679732177	-0.027483730431879485	0.8806301071040608	0.12091122193483134	-0.011969126123091743	0.900174240426947
37	0.6271186440677966	0.28815271432736544	0.3881007421732314	1.167200268582614	0.2593641310830417	0.5000402080805028	1.5892767591387347	0.22988203405936244	0.635557296955776	2.0281117005675036	0.21610731265100655	0.39799933639576535	2.0377076023932053	0.2693801778260956	0.45085708339528313	2.056932154231984	0.21308148495449705	0.6782717373237699	2.0706726947957623	0.09934957732687089	0.35190904857121225	1.1587938338046595	0.09282269073074582	0.4321829081032899	1.559271079462217	0.060387285502959936	0.5846886204013004	2.017913984078255	0.0695352197702948	0.3919133644441052	2.0460463290179653	0.02415422166361444	0.42144226771968696	2.0343743500534837	0.07860437163556513	0.633987716384718	2.0656106302140493	0.20808051096570665	0.2731232241311777	0.5891770971183118	0.2229366454284429	0.1992981867432373	0.36745530798620885	0.2186926872091053	0.16327168620979202	0.483728828651346	0.3507531880544601	0.33103827137351227	0.7000432526250563	0.40252051893089613	0.31705888656064013	0.9385015130285539	0.32508779261450155	0.12951107557778627	1.0338201603889536	0.25281266841505545	0.013323844529349852	1.0512007362940998	0.24755735377609084	-0.013735937415181558	1.072583669961878	0.267028124804093	0.04154334976873466	1.1202046542574535	0.05866203948628494	0.3077145555582412	0.6737628219922016	-0.055744155200460964	0.16101103035718248	0.7991698276247143	0.07772211869290113	0.03177432638104055	0.8101795013885789	0.15687109233249713	0.017724832731528105	0.8572355433654936	0.1551373050845446	-0.017005956210713012	0.8674793204823277	0.12036595919383289	-0.017604031843924138	0.882900656332667
38	0.6440677966101694	0.29209223092865755	0.38850749131525747	1.1671926412499556	0.26464391218098643	0.4877545051745316	1.5894000264827715	0.22989896438417792	0.6355586130308534	2.028161496975582	0.21603923656344443	0.39830728748273037	2.0379352435250255	0.26429207813394984	0.4488879401886819	2.0560623689795046	0.2131445719846932	0.6783576708319256	2.0706933290595173	0.09602107532479212	0.34866737546767745	1.161756120089022	0.09293867897065694	0.4344205004945232	1.5726466317527288	0.060415024300894654	0.5847034072722387	2.017987753272792	0.06963726107894903	0.39196958594148423	2.04596888735308	0.024154982680916395	0.4215089924748428	2.0343236816777366	0.0786652363505963	0.6342036872224988	2.065882584768684	0.208101238208695	0.2733536522751693	0.5890167304117563	0.22302507992061354	0.19925699964628527	0.36751782260376625	0.21880401301565128	0.16318103361006658	0.4836739647534864	0.35078184401190066	0.33131777982752475	0.7004163867532658	0.4023809377058933	0.3182947184039765	0.9389684932447437	0.32160101074399877	0.1269484176609378	1.0445215877431926	0.2498969513133946	0.024062941222914237	1.0619597374123662	0.2541927932985693	0.004795561545796898	1.103372188349413	0.27392692825951603	0.043163442717208664	1.1264321161920405	0.06376754734898209	0.29440456207965987	0.6699219281239881	-0.0709735784710935	0.1560662576442021	0.7913118365562808	0.06950634009378753	0.017355198265067748	0.7783477370046167	0.1579874551080104	0.01778333904397276	0.8419764316921785	0.1574051457160699	-0.0007926830256114174	0.8489969909535814	0.10746387175897766	-0.04410955246772633	0.855392618447172
39	0.6610169491525424	0.28838920452806194	0.38840163976999204	1.167063264007245	0.26463774911300936	0.48766696708855317	1.589459531994267	0.2299095038711516	0.6355622506930048	2.0280425329166407	0.21612666226866536	0.3978762565362874	2.037822642138903	0.2694730660376226	0.45104803476405236	2.0571654976379854	0.21311623664883061	0.6784626844141828	2.0705750830716423	0.0995364937078771	0.35007395980323425	1.1617288756361224	0.09759045432322078	0.4215669348050934	1.5644590792760102	0.060457740758130714	0.5846655898429631	2.017979688420153	0.06941456702774508	0.3919010717414232	2.0461303834648437	0.024156295106131424	0.4214517478935377	2.034360040973077	0.07876822230723064	0.6341936133690312	2.065978000305747	0.2113761417261818	0.2848148794356204	0.5889148477655035	0.23076852855514526	0.1862659142330614	0.3650464552182586	0.21866716999611696	0.1638213581298953	0.48041082918793915	0.35482305546374865	0.34563769412729484	0.7041617572481076	0.39890249587054916	0.33296924672051964	0.9409508008660273	0.3301922135514095	0.14137651867278264	1.0473981977296687	0.24672038603164026	0.026312265056371905	1.0765062482767347	0.25642961493776545	0.017739548386405932	1.1170212818751313	0.2747974783966599	0.045624433047518065	1.1382229425431116	0.06428035946495053	0.2942678955103366	0.6692141999610004	-0.0760433588780747	0.14868305541783333	0.7876757259202216	0.06973131066190226	0.015560002423856524	0.7647967516896133	0.15736807517222498	0.01626717315796359	0.8307010674775321	0.1544365115938774	0.005575194562206516	0.8330064528703517	0.11386215833417915	-0.02950247644791222	0.8423532878707619
